HIERARCHY
ROOT Hips
{
	OFFSET 0.000000 0.000000 0.000000
	CHANNELS 6 Xposition Yposition Zposition Zrotation Yrotation Xrotation 
	JOINT LHipJoint
	{
		OFFSET 0.000000 0.000000 0.000000
		CHANNELS 3 Zrotation Yrotation Xrotation
		JOINT LeftUpLeg
		{
			OFFSET 1.363060 -1.794630 0.839290
			CHANNELS 3 Zrotation Yrotation Xrotation
			JOINT LeftLeg
			{
				OFFSET 2.448110 -6.726130 0.000000
				CHANNELS 3 Zrotation Yrotation Xrotation
				JOINT LeftFoot
				{
					OFFSET 2.562200 -7.039590 0.000000
					CHANNELS 3 Zrotation Yrotation Xrotation
					JOINT LeftToeBase
					{
						OFFSET 0.157640 -0.433110 2.322550
						CHANNELS 3 Zrotation Yrotation Xrotation
						End Site
						{
							OFFSET 0.000000 0.000000 0.000000
						}
					}
				}
			}
		}
	}
	JOINT RHipJoint
	{
		OFFSET 0.000000 0.000000 0.000000
		CHANNELS 3 Zrotation Yrotation Xrotation
		JOINT RightUpLeg
		{
			OFFSET -1.305520 -1.794630 0.839290
			CHANNELS 3 Zrotation Yrotation Xrotation
			JOINT RightLeg
			{
				OFFSET -2.542530 -6.985550 0.000000
				CHANNELS 3 Zrotation Yrotation Xrotation
				JOINT RightFoot
				{
					OFFSET -2.568260 -7.056230 0.000000
					CHANNELS 3 Zrotation Yrotation Xrotation
					JOINT RightToeBase
					{
						OFFSET -0.164730 -0.452590 2.363150
						CHANNELS 3 Zrotation Yrotation Xrotation
						End Site
						{
							OFFSET 0.000000 0.000000 0.000000
						}
					}
				}
			}
		}
	}
	JOINT LowerBack
	{
		OFFSET 0.000000 0.000000 0.000000
		CHANNELS 3 Zrotation Yrotation Xrotation
		JOINT Spine
		{
			OFFSET 0.028270 2.035590 -0.193380
			CHANNELS 3 Zrotation Yrotation Xrotation
			JOINT Spine1
			{
				OFFSET 0.056720 2.048850 -0.042750
				CHANNELS 3 Zrotation Yrotation Xrotation
				JOINT Neck
				{
					OFFSET 0.000000 0.000000 0.000000
					CHANNELS 3 Zrotation Yrotation Xrotation
					JOINT Neck1
					{
						OFFSET -0.054170 1.746240 0.172020
						CHANNELS 3 Zrotation Yrotation Xrotation
						JOINT Head
						{
							OFFSET 0.104070 1.761360 -0.123970
							CHANNELS 3 Zrotation Yrotation Xrotation
							End Site
							{
								OFFSET 0.000000 0.000000 0.000000
							}
						}
					}
				}
				JOINT LeftShoulder
				{
					OFFSET 0.000000 0.000000 0.000000
					CHANNELS 3 Zrotation Yrotation Xrotation
					JOINT LeftArm
					{
						OFFSET 3.362410 1.200890 -0.311210
						CHANNELS 3 Zrotation Yrotation Xrotation
						JOINT LeftForeArm
						{
							OFFSET 4.983000 -0.000000 -0.000000
							CHANNELS 3 Zrotation Yrotation Xrotation
							JOINT LeftHand
							{
								OFFSET 3.483560 -0.000000 -0.000000
								CHANNELS 3 Zrotation Yrotation Xrotation
								JOINT LeftFingerBase
								{
									OFFSET 0.000000 0.000000 0.000000
									CHANNELS 3 Zrotation Yrotation Xrotation
									JOINT LeftHandIndex1
									{
										OFFSET 0.715260 -0.000000 -0.000000
										CHANNELS 3 Zrotation Yrotation Xrotation
										End Site
										{
											OFFSET 0.000000 0.000000 0.000000
										}
									}
								}
								JOINT LThumb
								{
									OFFSET 0.000000 0.000000 0.000000
									CHANNELS 3 Zrotation Yrotation Xrotation
									End Site
									{
										OFFSET 0.000000 0.000000 0.000000
									}
								}
							}
						}
					}
				}
				JOINT RightShoulder
				{
					OFFSET 0.000000 0.000000 0.000000
					CHANNELS 3 Zrotation Yrotation Xrotation
					JOINT RightArm
					{
						OFFSET -3.136600 1.374050 -0.404650
						CHANNELS 3 Zrotation Yrotation Xrotation
						JOINT RightForeArm
						{
							OFFSET -5.241900 -0.000000 -0.000000
							CHANNELS 3 Zrotation Yrotation Xrotation
							JOINT RightHand
							{
								OFFSET -3.444170 -0.000000 -0.000000
								CHANNELS 3 Zrotation Yrotation Xrotation
								JOINT RightFingerBase
								{
									OFFSET 0.000000 0.000000 0.000000
									CHANNELS 3 Zrotation Yrotation Xrotation
									JOINT RightHandIndex1
									{
										OFFSET -0.622530 -0.000000 -0.000000
										CHANNELS 3 Zrotation Yrotation Xrotation
										End Site
										{
											OFFSET 0.000000 0.000000 0.000000
										}
									}
								}
								JOINT RThumb
								{
									OFFSET 0.000000 0.000000 0.000000
									CHANNELS 3 Zrotation Yrotation Xrotation
									End Site
									{
										OFFSET 0.000000 0.000000 0.000000
									}
								}
							}
						}
					}
				}
			}
		}
	}
}
MOTION
Frames: 12
Frame Time: 0.008333
0.839698 18.354975 9.982347 -10.889623 5.056764 16.063059 6.476038 4.546627 -2.515633 -15.974631 -47.803506 18.304523 -3.610330 -2.225382 -3.826572 -15.700350 45.570035 -25.873531 0.068800 1.692200 4.655600 0.270218 -4.425972 -0.550425 24.287724 26.487070 0.095471 3.807771 -0.664456 2.253080 9.827148 -30.094338 -7.621304 -0.018700 -0.883700 2.429000 -1.573305 1.587932 8.478136 21.764971 7.598220 -31.046562 -11.359157 -1.584398 -9.029210 -21.323670 -13.108536 -0.956689 24.155408 -22.371969 20.033094 4.896000 -9.575900 7.226200 -8.906590 -6.135781 1.560027 -88.558264 17.774921 7.839114 14.210210 -16.531589 -2.819629 -1.146176 0.448299 2.536030 17.574463 -4.323635 -1.596300 -7.125000 0.000000 0.000000 -5.938600 25.004000 2.886600 11.016712 7.250985 1.824231 82.045935 -16.772085 -4.683188 -13.829664 18.685012 -2.934496 0.893959 1.746738 37.009461 7.714318 -31.181099 -4.418900 7.125000 0.000000 0.000000 44.039700 -57.353400 -15.292700 
0.840646 18.353394 9.984350 -10.923581 5.087342 15.932314 6.591126 4.581524 -2.455970 -16.291845 -47.970053 18.596908 -3.626886 -2.239403 -3.756016 -15.644440 45.509016 -26.207618 0.078100 1.803100 4.961900 0.411317 -4.436407 -0.423692 24.122546 26.317444 0.009244 3.803336 -0.669819 2.258263 9.778432 -29.948941 -7.464212 -0.017300 -0.850100 2.336300 -2.157664 1.465915 8.100383 23.415543 7.589178 -29.813250 -11.564179 -1.801428 -9.295546 -22.060565 -13.149241 -1.885324 24.160977 -22.258651 20.447907 4.934100 -9.483000 7.449500 -9.099808 -6.109337 1.434964 -89.112891 17.334634 6.944427 14.243121 -16.540060 -2.824818 -1.143204 0.465785 2.573849 17.601662 -4.468410 -1.653300 -7.125000 0.000000 0.000000 -5.914900 24.833800 2.898500 10.841418 7.308542 1.832794 81.386704 -16.322952 -4.101399 -13.729333 18.602255 -2.902846 0.901269 1.738060 37.077414 7.592625 -31.220588 -4.351000 7.125000 0.000000 0.000000 43.959700 -57.409500 -15.319500 
0.841068 18.353289 9.985193 -11.131886 5.169119 15.805805 6.723798 4.609976 -2.386734 -16.227112 -47.998260 18.650487 -3.633535 -2.270826 -3.745560 -15.658094 45.502439 -26.250188 0.073900 1.753700 4.825400 0.563860 -4.458319 -0.295209 24.183774 26.284511 -0.022516 3.800982 -0.676414 2.271072 9.755871 -29.895750 -7.455825 -0.018800 -0.885600 2.434100 -2.622803 1.359426 7.712503 25.210821 7.587179 -28.526193 -11.828755 -2.036998 -9.646784 -22.748462 -13.188737 -2.821359 24.059084 -22.111424 20.873329 4.960300 -9.379400 7.677900 -9.278908 -6.084413 1.302209 -89.716792 16.915892 5.953954 14.294481 -16.577839 -2.835679 -1.138231 0.463968 2.656108 17.569328 -4.453408 -1.643700 -7.125000 0.000000 0.000000 -5.942900 24.853900 2.909600 10.609012 7.370515 1.836683 80.757567 -15.907002 -3.461888 -13.650659 18.551273 -2.882402 0.904163 1.738893 37.082709 7.631117 -31.300706 -4.381000 7.125000 0.000000 0.000000 44.076900 -57.463100 -15.431900 
0.839592 18.352024 9.986564 -11.331627 5.234422 15.657467 6.853977 4.644382 -2.308656 -16.168723 -48.002459 18.712851 -3.640230 -2.304514 -3.742288 -15.681661 45.511088 -26.279111 0.070000 1.707200 4.697200 0.714549 -4.491045 -0.168010 24.277496 26.406137 0.058854 3.802896 -0.667491 2.247496 9.788893 -29.991643 -7.554326 -0.020300 -0.920000 2.528700 -3.119870 1.241235 7.318547 26.994988 7.517930 -27.185384 -12.033475 -2.277241 -10.024714 -23.374405 -13.222398 -3.737182 23.898034 -21.923677 21.239113 4.978700 -9.265400 7.884600 -9.452814 -6.068710 1.164695 -90.351015 16.458063 4.822915 14.337091 -16.602647 -2.841158 -1.135097 0.458989 2.830749 17.541369 -4.373572 -1.611100 -7.125000 0.000000 0.000000 -5.968100 24.947300 2.909000 10.367621 7.429997 1.831516 80.129962 -15.485511 -2.787940 -13.560321 18.485904 -2.856298 0.907534 1.730607 37.052584 7.505635 -31.282872 -4.304000 7.125000 0.000000 0.000000 43.933500 -57.476200 -15.381900 
0.832003 18.354659 9.991307 -11.003085 5.069225 15.663562 6.909973 4.700425 -2.252242 -16.839802 -48.341116 19.060781 -3.660121 -2.325231 -3.717767 -15.688999 45.636607 -26.905088 0.085900 1.890000 5.201700 0.836577 -4.516782 -0.106069 23.801700 27.124962 0.344344 3.818238 -0.620360 2.110004 10.002879 -30.487459 -7.988262 -0.044000 -1.354000 3.723500 -4.073199 1.074512 6.921886 28.182003 7.300953 -26.148383 -11.825980 -2.444790 -10.213295 -23.793713 -13.294276 -4.677357 23.684646 -21.760281 21.605267 4.953400 -9.161100 8.076000 -9.617754 -6.071903 1.060988 -90.868143 15.955558 3.662755 14.344370 -16.569263 -2.832612 -1.117237 0.489233 3.057266 17.486364 -4.592769 -1.687200 -7.125000 0.000000 0.000000 -6.012900 24.691300 2.967000 10.242184 7.481103 1.845452 79.402192 -14.925708 -1.940980 -13.360406 18.287139 -2.800268 0.913801 1.742047 36.321974 7.382157 -31.469920 -4.246100 7.125000 0.000000 0.000000 44.011400 -57.661200 -15.622900 
0.822832 18.365200 10.017133 -11.206901 5.266156 15.836866 7.104749 4.806856 -2.112350 -16.582409 -48.801396 18.840084 -3.654917 -2.383034 -3.787859 -15.817133 45.829673 -27.115191 0.087900 1.912300 5.263300 1.135304 -4.543210 0.053839 23.793674 28.129639 0.660336 3.846864 -0.499405 1.801993 10.299847 -31.256504 -8.816904 -0.106100 -2.100800 5.784200 -5.202111 0.604843 5.388855 31.305652 6.810006 -23.682678 -11.887786 -2.928584 -10.434686 -24.750103 -13.459720 -6.517939 23.260266 -21.366004 22.167061 4.945700 -8.929100 8.477700 -9.913634 -6.132904 0.800779 -92.011365 14.996756 1.752132 14.385260 -16.557499 -2.836946 -1.093621 0.558113 3.428695 17.520628 -5.055839 -1.865600 -7.125000 0.000000 0.000000 -5.985600 24.139100 3.030200 9.804307 7.618251 1.831150 78.013241 -13.797577 -0.183279 -13.041405 17.971210 -2.724955 0.923381 1.785130 34.851596 7.576963 -31.997113 -4.402700 7.125000 0.000000 0.000000 44.760000 -58.053400 -16.408200 
0.817983 18.369205 10.026936 -11.096690 5.250726 16.055937 7.094401 4.825305 -2.123360 -16.544635 -48.964194 18.656637 -3.647861 -2.377443 -3.810051 -15.877513 45.943263 -27.167236 0.089100 1.925500 5.299800 1.162535 -4.536978 0.006752 23.676709 28.727587 0.838147 3.861863 -0.445167 1.658714 10.461025 -31.660537 -9.297328 -0.152700 -2.517800 6.939100 -5.412323 0.494947 5.073605 31.382359 6.747927 -23.764526 -11.774716 -2.967521 -10.223288 -24.802669 -13.444591 -6.555763 23.270944 -21.311700 22.165243 4.957800 -8.898300 8.494000 -9.925155 -6.169061 0.801191 -92.112876 14.929583 1.310755 14.405199 -16.571074 -2.846757 -1.084909 0.597601 3.504726 17.595463 -5.365679 -1.990300 -7.125000 0.000000 0.000000 -5.926000 23.771300 3.050200 9.794444 7.636712 1.848701 77.853515 -13.646849 0.148298 -12.981074 17.900295 -2.716483 0.921945 1.813835 34.181095 7.785041 -32.275810 -4.552900 7.125000 0.000000 0.000000 45.268100 -58.232500 -16.852300 
0.817772 18.368573 10.027779 -11.100246 5.240790 16.036134 7.100189 4.829860 -2.115811 -16.581527 -48.969899 18.699075 -3.649165 -2.377517 -3.803947 -15.883955 45.956196 -27.187120 0.092400 1.960400 5.396300 1.169392 -4.541980 0.017402 23.687250 28.757120 0.879149 3.864221 -0.436368 1.644447 10.458441 -31.650859 -9.371843 -0.161000 -2.585100 7.125600 -5.432827 0.477403 5.048282 31.472024 6.717730 -23.658281 -11.782925 -2.984607 -10.255150 -24.847981 -13.448148 -6.631223 23.295290 -21.298107 22.181700 4.967700 -8.888100 8.509500 -9.929735 -6.166602 0.790972 -92.155681 14.900783 1.153401 14.441212 -16.619427 -2.862250 -1.076837 0.604378 3.455419 17.573855 -5.480781 -2.028300 -7.125000 0.000000 0.000000 -5.945200 23.643200 3.077900 9.782485 7.640466 1.845786 77.829361 -13.618753 0.211096 -13.011781 17.943454 -2.729188 0.917976 1.821760 34.212089 7.943792 -32.316266 -4.653800 7.125000 0.000000 0.000000 45.466700 -58.227000 -16.941800 
0.817245 18.368573 10.028939 -11.059555 5.217949 16.014745 7.098157 4.834579 -2.113193 -16.724412 -49.036793 18.834184 -3.653871 -2.377694 -3.797316 -15.876899 45.976073 -27.344092 0.096400 2.002500 5.512500 1.169954 -4.548754 0.019122 23.674062 28.834626 0.948277 3.865734 -0.440547 1.660399 10.474367 -31.684717 -9.468250 -0.164800 -2.615200 7.209100 -5.469615 0.479707 5.060736 31.464217 6.713368 -23.646399 -11.767191 -2.980361 -10.261151 -24.882860 -13.450175 -6.628993 23.306129 -21.300323 22.175745 4.973200 -8.890800 8.509500 -9.925944 -6.163212 0.788162 -92.171245 14.927372 1.179470 14.472618 -16.659543 -2.874728 -1.081078 0.598225 3.386259 17.603053 -5.457682 -2.022600 -7.125000 0.000000 0.000000 -5.921900 23.671700 3.061800 9.784449 7.637249 1.845299 77.797718 -13.643358 0.319186 -13.031274 17.974789 -2.738398 0.914818 1.828496 34.119475 8.004243 -32.370640 -4.697200 7.125000 0.000000 0.000000 45.586900 -58.255400 -17.032200 
0.816191 18.368573 10.029887 -11.015345 5.179805 16.025210 7.072127 4.830395 -2.123730 -16.710682 -48.932886 18.771131 -3.652153 -2.366391 -3.786365 -15.861942 45.940854 -27.233356 0.088700 1.921100 5.287700 1.138518 -4.548293 -0.015305 23.712171 28.974174 1.036037 3.865128 -0.457918 1.709750 10.507511 -31.768434 -9.564882 -0.159300 -2.571400 7.087600 -5.366355 0.546969 5.154669 31.026813 6.799101 -23.955395 -11.762745 -2.896487 -10.129934 -24.765921 -13.467338 -6.408039 23.421451 -21.409296 22.098178 4.974700 -8.941600 8.468300 -9.896183 -6.166740 0.825468 -91.940985 14.995120 1.516788 14.448276 -16.634783 -2.867620 -1.094911 0.597280 3.302178 17.691879 -5.421786 -2.022200 -7.125000 0.000000 0.000000 -5.847300 23.705600 3.018200 9.862488 7.628273 1.849432 77.952063 -13.727446 0.125744 -13.032291 17.959780 -2.734081 0.914734 1.823019 33.997398 7.832214 -32.303533 -4.586200 7.125000 0.000000 0.000000 45.349000 -58.244100 -16.904500 
0.814821 18.368678 10.031258 -11.004951 5.139666 16.067157 7.023942 4.819630 -2.149121 -16.586065 -48.811668 18.656985 -3.646753 -2.355252 -3.803111 -15.864712 45.928383 -27.071200 0.085600 1.886800 5.192900 1.073053 -4.536789 -0.069860 23.789375 28.944325 1.050429 3.863175 -0.455637 1.707594 10.503130 -31.768324 -9.479759 -0.149600 -2.492400 6.868500 -5.086858 0.678183 5.315537 30.190060 6.965604 -24.548270 -11.781747 -2.738420 -9.879718 -24.489680 -13.511538 -6.007380 23.602398 -21.620788 21.956627 4.962700 -9.040300 8.391900 -9.836403 -6.175275 0.898114 -91.497223 15.114577 2.111755 14.390620 -16.576207 -2.850376 -1.105257 0.601959 3.219013 17.755841 -5.425978 -2.034000 -7.125000 0.000000 0.000000 -5.792500 23.692500 2.991400 10.005090 7.613326 1.854778 78.313867 -13.874350 -0.394898 -13.049629 17.943941 -2.730716 0.913809 1.815730 33.918463 7.653690 -32.181511 -4.466100 7.125000 0.000000 0.000000 45.045000 -58.191700 -16.699300 
0.813978 18.368468 10.032839 -11.037839 5.133098 16.082989 7.005440 4.815396 -2.162649 -16.525391 -48.811527 18.670080 -3.644633 -2.356480 -3.829942 -15.884514 45.962716 -27.061043 0.092700 1.963500 5.404800 1.039767 -4.525901 -0.085488 23.829726 28.731371 0.974903 3.860773 -0.438167 1.661731 10.457369 -31.664561 -9.250473 -0.141200 -2.422000 6.673400 -4.922117 0.739704 5.368741 29.814869 7.045604 -24.812761 -11.808302 -2.665925 -9.755565 -24.325642 -13.523575 -5.815784 23.650694 -21.699122 21.875082 4.947200 -9.078900 8.345900 -9.807474 -6.181701 0.931309 -91.286098 15.182866 2.431886 14.371995 -16.560495 -2.845227 -1.110381 0.597758 3.248769 17.780092 -5.357986 -2.012600 -7.125000 0.000000 0.000000 -5.772200 23.768000 2.970700 10.064792 7.605364 1.854858 78.505948 -13.942196 -0.694493 -13.053787 17.929266 -2.727918 0.912988 1.814814 33.959749 7.667977 -32.128800 -4.468900 7.125000 0.000000 0.000000 45.001700 -58.148400 -16.629700 
